<svg xmlns="http://www.w3.org/2000/svg" viewBox="0 0 283.44 153.9" fill="#004090"><path d="M282.54,89.49H259.73c0,.58-.09,1-.09,1.51,0,11.72,0,23.44,0,35.16a34.62,34.62,0,0,0,.66,6.54c.85,4.29,3.32,6.33,7.66,6.81a48.86,48.86,0,0,0,12.41-.62l1.46-.2,1.58,12.92c-2.23.34-4.33.82-6.46,1-4.86.34-9.73.72-14.59.69a40.89,40.89,0,0,1-9.11-1.21c-6.6-1.57-10.42-6-11.6-12.57a46.6,46.6,0,0,1-.74-7.86c-.07-13.56,0-27.12,0-40.68,0-1.17-.33-1.47-1.47-1.45-4.4.07-8.8,0-13.2,0h-1.34V77.06h1.34c4.4,0,8.8,0,13.2,0,1.14,0,1.49-.27,1.48-1.45-.06-6.76,0-13.52,0-20.28V53.87l18.74-4.35V77h22.9Z"/><path d="M146.68,151.88V89.42l-12.41-1.64v-9.6c5.06-.87,26.14-1.88,30.34-1-.16,2.34-.28,4.72-.5,7.09s-.52,4.67-.81,7.26c.31-.48.51-.76.68-1,4.84-7.88,12.06-12.31,20.94-14.11a40.09,40.09,0,0,1,20.73.83c8.12,2.66,12.53,8.47,13.81,16.77a41.33,41.33,0,0,1,.43,6.21q.05,25,0,50c0,1.71,0,1.71-1.77,1.71H201.33c0-.62,0-1.12,0-1.63,0-16,0-31.91-.06-47.87a21.81,21.81,0,0,0-.68-5.09c-1.27-5.17-4.74-7.89-10.07-8.37-11.94-1.08-20,6.76-23.34,15.81a31.33,31.33,0,0,0-1.94,10.91q0,17.34,0,34.67v1.49Z"/><path d="M81.5,131.35a58.42,58.42,0,0,1-18.77-12.09c-1.63-1.53-3.19-3.15-4.7-4.79a2.78,2.78,0,0,1-.69-1.67c-.4-17,9.86-31.12,26.28-35.55,11.3-3,22.61-2.62,33.4,2.26,9.58,4.33,14.71,12.16,16.33,22.43.88,5.59.21,11.15-.29,16.91l-50.2-2.75v-9.9c10.56-1,21.1-1.82,31.79-1.44a16.19,16.19,0,0,0-.84-6.91,14.22,14.22,0,0,0-9.5-9.26,23.19,23.19,0,0,0-15.63.23A16.62,16.62,0,0,0,78.31,99.89a38.86,38.86,0,0,0,1.8,29C80.45,129.68,80.93,130.37,81.5,131.35Z"/><path d="M18.63,102.29v49.56H.09V50.26H18.56V97l.35.24c.21-.31.4-.63.64-.91q19-22.68,38-45.34A2.23,2.23,0,0,1,59,50.22c6.64-.05,13.28,0,19.92,0,.15,0,.31,0,.73.07L36.83,99.19c1.32,1.61,2.56,3.21,3.88,4.73,5.34,6.16,10.47,12.53,16.12,18.39A60.77,60.77,0,0,0,87.42,139.8a63.74,63.74,0,0,0,22.75,1,90.3,90.3,0,0,0,17.34-4.14l2.75,12.63c-1.74.48-3.44,1-5.16,1.43a107.34,107.34,0,0,1-31.87,3.07c-18.36-.88-34.55-7.26-47.86-20.1-4.21-4.06-7.83-8.75-11.62-13.24-4.8-5.68-9.5-11.45-14.25-17.17C19.3,103,19.08,102.78,18.63,102.29Z"/><path d="M268.35,17.26H263.3v-4.4h4.94c.09-1.52.14-2.9.26-4.28C269,3.34,272.07.28,277.33,0c1.86-.09,3.73.09,5.79.15L282.69,5c-7.88-1.75-9.1,2.16-8.56,7.84h6.76v4.46c-1,0-2,0-2.91,0-1.27,0-2.54.09-3.81.13-.06,1.3-.17,2.6-.17,3.91,0,5.6,0,11.19,0,16.79v1.4h-5.64Z"/><path d="M261.5,25.55c0,4.7-1.33,8.84-5.12,11.87-4.85,3.89-13,3.65-17-.54a11,11,0,0,1-2.27-3.62,18,18,0,0,1-.25-12.11,12.92,12.92,0,0,1,14-8.8c7.67.82,10.2,6.09,10.56,11.63C261.53,24.51,261.5,25,261.5,25.55Zm-19.74.23c.3,1.82.4,3.22.77,4.55a6.07,6.07,0,0,0,5.88,4.91A6.35,6.35,0,0,0,254.82,31a14,14,0,0,0,.33-9c-.84-3-2.65-4.49-5.82-4.81a6.21,6.21,0,0,0-6.26,3.75A32.65,32.65,0,0,0,241.76,25.78Z"/><path d="M197.56,48.05c1.11.1,2.1.23,3.1.27a5,5,0,0,0,4.67-2.19,46.12,46.12,0,0,0,3-6.23c.17-.41-.14-1.07-.32-1.58Q203.51,26.38,199,14.45c-.18-.47-.32-1-.53-1.61,2.08,0,4,0,6,0,.26,0,.61.56.73.92q3,8.65,5.9,17.32c.06.17.14.33.33.79.34-1.11.57-1.93.85-2.74,1.78-5.17,3.58-10.33,5.33-15.5a1.06,1.06,0,0,1,1.2-.86c1.67,0,3.35,0,5.23,0-.33.9-.59,1.67-.88,2.43-3.38,9-6.73,17.93-10.17,26.86A37.36,37.36,0,0,1,210,48c-2.51,4.14-6.39,5.57-11.07,5.12-2.13-.2-2.12-.24-1.81-2.41.06-.43.08-.88.14-1.31S197.46,48.54,197.56,48.05Z"/><path d="M177.8,17.27V12.85h5c0-1.87,0-3.61,0-5.35,0-3.18,0-3.18,3.06-4,.83-.23,1.67-.42,2.65-.66v10h6.91v4.41h-6.85c0,.49-.07.87-.07,1.25,0,4,0,8.07,0,12.11s1.13,5,5.09,4.53l1.68-.18.5,4.51c-3.24.61-6.38,1.08-9.52.07a4.72,4.72,0,0,1-3.16-4,18.21,18.21,0,0,1-.28-3.09c0-3.88,0-7.75,0-11.63,0-1.11.33-2.62-.25-3.21s-2.09-.24-3.19-.29C178.9,17.25,178.42,17.27,177.8,17.27Z"/><path d="M168.56,17.31l-3.94-.63V13.13l9.47-.43V39.5h-5.52Z"/><path d="M171.29,7.91a3.43,3.43,0,0,1-3.5-3.46A3.54,3.54,0,0,1,171.36,1a3.44,3.44,0,0,1,3.52,3.56A3.38,3.38,0,0,1,171.29,7.91Z"/><path d="M146.11,34.88c2.23.23,4.32.58,6.41.61a6.21,6.21,0,0,0,3-.89,2.9,2.9,0,0,0,0-5.17,19.78,19.78,0,0,0-3.07-1.3c-.86-.33-1.75-.58-2.59-.92-2.61-1.06-4.31-2.85-4.51-5.79a7.38,7.38,0,0,1,3.76-7.47,14.81,14.81,0,0,1,8.71-1.57c1.11.08,2.2.27,3.43.43L161,17.26a37.92,37.92,0,0,0-4.28-.5,13.19,13.19,0,0,0-3.63.51,2.56,2.56,0,0,0-1.83,2.43,2.71,2.71,0,0,0,1.4,2.83A31.06,31.06,0,0,0,156,24c.89.36,1.81.62,2.69,1A7.19,7.19,0,0,1,161,36.84,10.29,10.29,0,0,1,154,40a64.08,64.08,0,0,1-7.16-.28c-.89,0-1.25-.4-1.07-1.38C146,37.12,146,35.91,146.11,34.88Z"/><path d="M128.92,17.29,125,16.68V13.13l9.34-.43-.33,5.1.18,0c.34-.61.66-1.23,1-1.82a7.72,7.72,0,0,1,6.58-3.75c.88,0,1.21.24,1.16,1.16-.07,1.46,0,2.93,0,4.39h-.34c-.07,0-.15.09-.21.08-4-.39-6.25,1.1-7.15,5a34.49,34.49,0,0,0-.71,6.4c-.12,3.27,0,6.55-.05,9.83a1.65,1.65,0,0,1-.09.32h-5.52Z"/><path d="M123.48,26.63h-12.3c-1.24,0-2.48.06-3.72,0-1-.06-1.21.3-1.16,1.24.39,6.87,4.78,8.19,10,7.58,1.88-.22,3.72-.79,5.7-1.23.19,1.16.44,2.4.57,3.65a1,1,0,0,1-.55.81,23.23,23.23,0,0,1-13.67.84,9.34,9.34,0,0,1-6.79-6.22,19.06,19.06,0,0,1,.36-14.16c3.35-7.74,12.3-8,16.85-5.27,3,1.82,4.32,4.73,4.67,8.09A46.24,46.24,0,0,1,123.48,26.63Zm-16.95-3.87c3.61,0,7.15,0,10.69,0,.21,0,.57-.4.59-.64a5.22,5.22,0,0,0-3.61-5.31C110.36,15.66,106.86,18.29,106.53,22.76Z"/><path d="M100.31,12.82,96.41,23.1c-1.93,5.12-3.88,10.23-5.78,15.35-.31.83-.68,1.22-1.62,1.15-1.31-.09-2.64,0-4-.05a1.27,1.27,0,0,1-1-.6c-3.26-8.62-6.49-17.26-9.81-26.12,2.06,0,4,0,5.92,0,.26,0,.61.57.74.93Q84,22.68,87.09,31.58c.07.22.18.43.29.67,1.2-3.49,2.36-6.92,3.55-10.35.94-2.71,1.94-5.41,2.87-8.13a1.2,1.2,0,0,1,1.37-1C96.8,12.86,98.43,12.82,100.31,12.82Z"/><path d="M65.22,39.5V17.29l-3.92-.62V13.14l9.56-.44V39.5Z"/><path d="M68,7.91a3.45,3.45,0,0,1-3.5-3.47A3.53,3.53,0,0,1,68.12,1a3.49,3.49,0,0,1,3.54,3.45A3.43,3.43,0,0,1,68,7.91Z"/><path d="M32.15,16.7V13.1c2.9-.09,5.79-.2,8.68-.23.21,0,.61.56.61.87,0,1.31-.11,2.62-.2,4.11.24-.34.41-.55.55-.77a10.21,10.21,0,0,1,11.57-4.41,6.59,6.59,0,0,1,5,6.54c.15,6.63.08,13.27.09,19.91a1.67,1.67,0,0,1-.12.4H52.82V38.13c0-5.28,0-10.55,0-15.83a10.22,10.22,0,0,0-.2-2.26,3.63,3.63,0,0,0-4.47-2.95,6.88,6.88,0,0,0-5,3.87,12.47,12.47,0,0,0-1.38,6c0,3.68,0,7.36,0,11,0,.47,0,.94,0,1.49H36.2c0-.43-.07-.89-.07-1.35,0-6.48,0-13,0-19.43,0-1.23-.44-1.61-1.52-1.7C33.85,17,33.06,16.82,32.15,16.7Z"/><path d="M22.93,3.22c1.8,0,3.43,0,5.06,0,.84,0,.63.68.63,1.15q0,9.71,0,19.43c0,1.36-.05,2.71-.15,4.07C28,35,23.42,39.56,16.24,40a23.32,23.32,0,0,1-8.32-.63A10.13,10.13,0,0,1,.19,29.85C.09,28.46,0,27.06,0,25.66,0,18.58,0,11.51,0,4.43,0,3.51.23,3.15,1.21,3.2c1.51.08,3,0,4.67,0v1.4q0,11.15,0,22.31A13.19,13.19,0,0,0,6,29.08c.67,4,2.92,6,7,6.21a17,17,0,0,0,3.47-.11c4-.64,6.12-2.86,6.27-6.93.19-5.07.15-10.15.19-15.22C22.95,9.84,22.93,6.64,22.93,3.22Z"/></svg>